<?xml version="1.0" standalone="no"?>
<!DOCTYPE svg PUBLIC "-//W3C//DTD SVG 20010904//EN"
 "http://www.w3.org/TR/2001/REC-SVG-20010904/DTD/svg10.dtd">
<svg version="1.0" xmlns="http://www.w3.org/2000/svg"
 width="128.000000pt" height="128.000000pt" viewBox="0 0 128.000000 128.000000"
 preserveAspectRatio="xMidYMid meet">
<metadata>
Created by potrace 1.14, written by Peter Selinger 2001-2017
</metadata>
<g transform="translate(0.000000,128.000000) scale(0.100000,-0.100000)"
fill="#000000" stroke="none">
<path d="M189 1091 l-29 -29 0 -422 0 -422 29 -29 29 -29 422 0 422 0 29 29
29 29 0 422 0 422 -29 29 -29 29 -422 0 -422 0 -29 -29z m551 -241 l0 -110
110 0 110 0 0 -100 0 -100 -110 0 -110 0 0 -110 0 -110 -100 0 -100 0 0 110 0
110 -110 0 -110 0 0 100 0 100 110 0 110 0 0 110 0 110 100 0 100 0 0 -110z"/>
</g>
</svg>
